<svg width="23" height="20" viewBox="0 0 23 20" fill="none" xmlns="http://www.w3.org/2000/svg">
<path d="M22.2596 5.13481L21.1622 4.1719C20.7819 3.85536 20.3377 3.69705 19.8307 3.69705C19.3133 3.69705 18.8744 3.85536 18.5134 4.1719L11.4007 10.4109L4.28803 4.17208C3.92706 3.85554 3.48807 3.69723 2.97081 3.69723C2.46355 3.69723 2.01948 3.85554 1.63914 4.17208L0.556122 5.13499C0.185309 5.46002 5.48363e-06 5.84952 5.48363e-06 6.30315C5.48363e-06 6.76522 0.185514 7.15032 0.55607 7.45836L10.0834 15.8152C10.4348 16.1403 10.8736 16.303 11.4006 16.303C11.9177 16.303 12.3617 16.1404 12.7322 15.8152L22.2596 7.45836C22.6206 7.14164 22.8012 6.75659 22.8012 6.30315C22.8013 5.85798 22.6206 5.46869 22.2596 5.13481Z" fill="#937341"/>
</svg>
